<?xml version="1.0" encoding="UTF-8" standalone="no"?>
<!-- Created with Inkscape (http://www.inkscape.org/) -->

<svg
   xmlns:dc="http://purl.org/dc/elements/1.1/"
   xmlns:cc="http://creativecommons.org/ns#"
   xmlns:rdf="http://www.w3.org/1999/02/22-rdf-syntax-ns#"
   xmlns:svg="http://www.w3.org/2000/svg"
   xmlns="http://www.w3.org/2000/svg"
   xmlns:sodipodi="http://sodipodi.sourceforge.net/DTD/sodipodi-0.dtd"
   xmlns:inkscape="http://www.inkscape.org/namespaces/inkscape"
   width="210mm"
   height="297mm"
   viewBox="0 0 210 297"
   version="1.1"
   id="svg8"
   inkscape:export-filename="/home/lucas/dev/presentations/heroesGuide/static/img/hero.png"
   inkscape:export-xdpi="96"
   inkscape:export-ydpi="96"
   inkscape:version="0.92.4 (5da689c313, 2019-01-14)"
   sodipodi:docname="hero.svg">
  <defs
     id="defs2" />
  <sodipodi:namedview
     id="base"
     pagecolor="#ffffff"
     bordercolor="#666666"
     borderopacity="1.0"
     inkscape:pageopacity="0.0"
     inkscape:pageshadow="2"
     inkscape:zoom="1.8507418"
     inkscape:cx="550.58859"
     inkscape:cy="767.97619"
     inkscape:document-units="mm"
     inkscape:current-layer="layer1"
     showgrid="false"
     inkscape:window-width="3840"
     inkscape:window-height="2032"
     inkscape:window-x="0"
     inkscape:window-y="54"
     inkscape:window-maximized="1" />
  <metadata
     id="metadata5">
    <rdf:RDF>
      <cc:Work
         rdf:about="">
        <dc:format>image/svg+xml</dc:format>
        <dc:type
           rdf:resource="http://purl.org/dc/dcmitype/StillImage" />
        <dc:title></dc:title>
      </cc:Work>
    </rdf:RDF>
  </metadata>
  <g
     inkscape:label="Camada 1"
     inkscape:groupmode="layer"
     id="layer1">
    <ellipse
       style="fill:#ffffff;fill-opacity:0.93925231;stroke:#000000;stroke-width:0.26458332;stroke-opacity:1"
       id="path815"
       cx="154.97025"
       cy="62.560272"
       rx="16.063988"
       ry="18.804316" />
    <ellipse
       style="fill:#ffffff;fill-opacity:1;stroke:#000000;stroke-width:0.26458332;stroke-opacity:1"
       id="path823"
       cx="162.43527"
       cy="83.821426"
       rx="29.387648"
       ry="4.3467264" />
    <ellipse
       style="fill:#3c00ff;fill-opacity:1;stroke:#000000;stroke-width:0.26458332;stroke-opacity:1"
       id="path825"
       cx="42.347164"
       cy="118.97077"
       rx="43.561756"
       ry="7.1815472"
       transform="rotate(-12.751994)" />
    <ellipse
       transform="rotate(-9.2963922)"
       ry="7.1815472"
       rx="43.561756"
       cy="112.91925"
       cx="45.765423"
       id="ellipse827"
       style="fill:#3c00ff;fill-opacity:1;stroke:#000000;stroke-width:0.26458332;stroke-opacity:1" />
    <path
       style="fill:#ff0000;stroke:#000000;stroke-width:0.26458332px;stroke-linecap:butt;stroke-linejoin:miter;stroke-opacity:1;fill-opacity:1"
       d="m 142.68601,73.427081 -98.08482,23.623513 13.229167,3.779756 c 0,0 -2.645834,13.04018 -1.889882,12.66221 0.755952,-0.37798 16.630952,-3.40179 16.630952,-3.40179 l -0.188987,16.63096 c 0,0 19.276785,-4.9137 19.087798,-4.15774 -0.188989,0.75595 -1.700895,16.44196 -1.700895,16.44196 0,0 21.922617,-4.34672 20.977677,-3.59077 -0.94494,0.75595 -2.83482,14.93006 -2.83482,14.93006 l 41.57738,-68.79167 z"
       id="path819"
       inkscape:connector-curvature="0" />
    <circle
       style="fill:#ffffff;fill-opacity:0.93925231;stroke:#000000;stroke-width:0.26458332;stroke-opacity:1"
       id="path821"
       cx="195.1302"
       cy="81.459076"
       r="7.6540179" />
    <text
       xml:space="preserve"
       style="font-style:normal;font-weight:normal;font-size:10.58333302px;line-height:1.25;font-family:sans-serif;letter-spacing:0px;word-spacing:0px;fill:#ffff00;fill-opacity:1;stroke:none;stroke-width:0.26458332"
       x="28.255938"
       y="140.83415"
       id="text850"
       transform="rotate(-28.235182)"><tspan
         sodipodi:role="line"
         id="tspan848"
         x="28.255938"
         y="140.83415"
         style="fill:#ffff00;fill-opacity:1;stroke-width:0.26458332">Placeholder</tspan></text>
    <path
       style="fill:none;stroke:#000000;stroke-width:0.26458332px;stroke-linecap:butt;stroke-linejoin:miter;stroke-opacity:1"
       d="m 165.94162,56.968998 c 0.11354,0.0011 0.18823,0.06815 0.28592,0.10722 0.035,0.014 0.0735,0.01889 0.10722,0.03574 0.0384,0.01921 0.0688,0.05227 0.10722,0.07148 0.0337,0.01685 0.0726,0.0209 0.10722,0.03574 0.049,0.02098 0.0943,0.04984 0.14297,0.07148 0.0586,0.02606 0.12131,0.04279 0.17869,0.07148 0.0769,0.03842 0.13761,0.104542 0.21445,0.142959 0.0337,0.01685 0.0715,0.02384 0.10722,0.03574 0.0357,0.01191 0.0715,0.02381 0.10722,0.03574 0.25145,0.08382 -0.059,-0.02527 0.25018,0.107219 0.0346,0.01484 0.0735,0.01889 0.10722,0.03574 0.0384,0.01921 0.0715,0.04765 0.10722,0.07148 0.0357,0.02384 0.0737,0.04465 0.10722,0.07148 0.0263,0.02106 0.0426,0.05414 0.0715,0.07148 0.0323,0.01939 0.0749,0.01635 0.10722,0.03574 0.33243,0.199457 -0.25048,-0.07163 0.1787,0.14296 0.0337,0.01685 0.0735,0.01889 0.10722,0.03574 0.0384,0.01921 0.0688,0.05227 0.10722,0.07148 0.11625,0.05812 0.085,0.009 0.1787,0.07148 0.014,0.0093 0.0207,0.0282 0.0357,0.03574 0.0107,0.0053 0.0238,0 0.0357,0 0.0238,0.01191 0.0493,0.02096 0.0715,0.03574 0.014,0.0093 0.0217,0.02641 0.0357,0.03574 0.0222,0.01476 0.0502,0.01976 0.0715,0.03574 0.0539,0.04044 0.089,0.102526 0.14296,0.14296 0.0213,0.01598 0.0477,0.02384 0.0715,0.03574 0.0477,0.02384 0.0953,0.04765 0.14296,0.07148 0.0238,0.01191 0.0493,0.02096 0.0715,0.03574 0.014,0.0093 0.0217,0.0264 0.0357,0.03574 0.0443,0.02955 0.0986,0.04193 0.14296,0.07148 0.028,0.01868 0.0413,0.05641 0.0715,0.07148 0.0107,0.0053 0.0244,-0.0038 0.0357,0 0.0654,0.0218 0.0969,0.06121 0.14296,0.107222"
       id="path854"
       inkscape:connector-curvature="0" />
    <path
       style="fill:none;stroke:#000000;stroke-width:0.26458332px;stroke-linecap:butt;stroke-linejoin:miter;stroke-opacity:1"
       d="m 169.58712,59.863952 c -0.0477,0.05957 -0.0953,0.119134 -0.14296,0.1787 -0.0119,0.02384 -0.021,0.04931 -0.0357,0.07148 -0.009,0.01402 -0.0264,0.02172 -0.0357,0.03574 -0.0148,0.02217 -0.0238,0.04765 -0.0357,0.07148 -0.0119,0.02381 -0.0273,0.04621 -0.0357,0.07148 -0.004,0.0113 0.005,0.02508 0,0.03574 -0.008,0.01508 -0.0282,0.02066 -0.0357,0.03574 -0.005,0.01066 0.004,0.02445 0,0.03574 -0.008,0.02527 -0.0238,0.04765 -0.0357,0.07148 -0.0119,0.02381 -0.0169,0.05264 -0.0357,0.07148 -0.0188,0.01884 -0.0493,0.02096 -0.0715,0.03574 -0.028,0.01868 -0.0413,0.05641 -0.0715,0.07148 -0.0107,0.0053 -0.0245,-0.0038 -0.0357,0 -0.0253,0.0084 -0.0462,0.02732 -0.0715,0.03574 -0.0225,0.0075 -0.14649,0 -0.17871,0 -0.0288,0 -0.12052,0.0075 -0.14296,0 -0.0253,-0.0084 -0.0462,-0.02732 -0.0715,-0.03574 -0.038,-0.01267 -0.10498,0.01265 -0.14296,0 -0.0253,-0.0084 -0.0462,-0.02732 -0.0715,-0.03574 -0.038,-0.01265 -0.10498,0.01267 -0.14296,0 -0.0316,-0.0105 -0.18616,-0.08837 -0.21444,-0.10722 -0.014,-0.0093 -0.0207,-0.02821 -0.0357,-0.03574 -0.0107,-0.0053 -0.0251,0.0053 -0.0357,0 -0.0151,-0.0075 -0.0207,-0.02821 -0.0357,-0.03574 -0.0213,-0.01066 -0.0502,0.01066 -0.0715,0 -0.0356,-0.01783 -0.0987,-0.108792 -0.10722,-0.14296 -0.006,-0.02313 0.006,-0.04837 0,-0.07148 0.0215,-0.06469 -0.0579,-0.06647 -0.0715,-0.10722 -0.0127,-0.03798 0.0127,-0.104984 0,-0.142962 -0.008,-0.02527 -0.0273,-0.04621 -0.0357,-0.07148 -0.007,-0.02244 0,-0.114189 0,-0.14296 0,-0.02877 -0.007,-0.120528 0,-0.142962 0.008,-0.02527 0.0273,-0.04621 0.0357,-0.07148 0.004,-0.0113 -0.0119,-0.03574 0,-0.03574 0.0253,0 -0.0506,0.166788 0,-0.03574 0.006,-0.02585 0.0273,-0.04621 0.0357,-0.07148 0.0127,-0.03798 -0.0127,-0.104984 0,-0.142963 0.008,-0.02527 0.0273,-0.04621 0.0357,-0.07148 0.008,-0.0226 -0.0169,-0.05463 0,-0.07148 0.008,-0.0084 0.0251,0.0053 0.0357,0 0.0883,-0.04416 -0.0123,-0.03574 0.0715,-0.03574 0.0119,0 0.0477,0 0.0357,0 -0.0238,0 -0.0715,0.02381 -0.0715,0 0,-0.02384 0.0476,0 0.0715,0 0.0119,0 0.0238,0 0.0357,0 0.0596,0 0.11913,0 0.1787,0 0.0953,0 0.19062,0 0.28592,0 0.0235,0 0.0871,-0.0067 0.10722,0 0.0649,0.02164 0.0663,0.03059 0.10722,0.07148 0.0119,0.01191 0.0207,0.0282 0.0357,0.03574 0.0835,0.04175 0.12921,0.03574 0.21444,0.03574 0.0532,0 0.0456,-0.0053 0.10723,0.03574 0.014,0.0093 0.0207,0.02821 0.0357,0.03574 0.0337,0.01685 0.0722,0.02175 0.10722,0.03574 0.0247,0.0099 0.0477,0.02384 0.0715,0.03574 0.0238,0.01191 0.0493,0.02096 0.0715,0.03574 0.028,0.01868 0.0434,0.05279 0.0715,0.07148 0.0222,0.01476 0.0462,0.02732 0.0715,0.03574 0.0139,0.0046 0.10167,-0.0056 0.10722,0 0.008,0.0084 -0.008,0.02732 0,0.03574 0.007,0.0073 0.093,-0.0071 0.10722,0 0.0134,0.0067 0.0932,0.09634 0.0715,0.10722 -0.0238,0.01191 -0.0477,-0.09531 -0.0357,-0.07148 0.0238,0.04765 0.0715,0.08968 0.0715,0.14296 0,0.05328 -0.10477,0.101359 -0.0715,0.142962 0.0453,0.05659 0.14296,0.02381 0.21444,0.03574"
       id="path856"
       inkscape:connector-curvature="0" />
    <path
       style="fill:none;stroke:#000000;stroke-width:0.26458332px;stroke-linecap:butt;stroke-linejoin:miter;stroke-opacity:1"
       d="m 164.54775,69.656758 c 0.0619,0.136626 0.19785,0.208426 0.28593,0.321662 0.0426,0.05483 0.0674,0.121793 0.10722,0.178702 0.0875,0.124987 0.19843,0.232415 0.28592,0.357402 0.0398,0.05691 0.0646,0.123867 0.10722,0.1787 0.0414,0.0532 0.0982,0.09259 0.14296,0.142962 0.10136,0.114027 0.18931,0.239321 0.28592,0.357402 0.0599,0.07327 0.25797,0.305562 0.32166,0.393141 0.0505,0.06948 0.0937,0.144061 0.14296,0.21444 0.19953,0.285043 0.0125,0.01458 0.21444,0.250182 0.30185,0.352152 -0.0476,-0.03267 0.17871,0.250182 0.0211,0.0263 0.0504,0.04517 0.0715,0.07148 0.0268,0.03354 0.0446,0.07368 0.0715,0.10722 0.0602,0.07526 0.0651,0.06831 0.14296,0.107219 0.0238,0.01191 0.0526,0.01691 0.0715,0.03574 0.0435,0.04353 0.0168,0.07985 0.0715,0.107223 0.0107,0.0053 0.0242,-0.0029 0.0357,0 0.0365,0.0091 0.0735,0.01889 0.10722,0.03574 0.0151,0.0075 0.0238,0.02384 0.0357,0.03574 0.0238,0.02384 0.0445,0.05126 0.0715,0.07148 0.0213,0.01598 0.0493,0.02096 0.0715,0.03574 0.014,0.0093 0.0238,0.02384 0.0357,0.03574 0.0119,0.01191 0.0264,0.02172 0.0357,0.03574 0.0148,0.02217 0.0209,0.04932 0.0357,0.07148 0.0206,0.03084 0.0793,0.0793 0.10722,0.107219 0.0119,0.01191 0.0238,0.02381 0.0357,0.03574 0.0119,0.01191 0.0207,0.0282 0.0357,0.03574 0.0107,0.0053 0.0251,-0.0053 0.0357,0 0.0151,0.0075 0.0207,0.0282 0.0357,0.03574 0.0213,0.01066 0.0489,-0.0075 0.0715,0 0.0253,0.0084 0.0456,0.02928 0.0715,0.03574 0.0462,0.01156 0.0962,-0.0093 0.14296,0 0.0369,0.0074 0.0707,0.0266 0.10722,0.03574 0.0231,0.0058 0.0477,0 0.0715,0"
       id="path864"
       inkscape:connector-curvature="0" />
    <path
       style="fill:none;stroke:#000000;stroke-width:0.26458332px;stroke-linecap:butt;stroke-linejoin:miter;stroke-opacity:1"
       d="m 164.9409,68.477333 c -0.0953,0 -0.19062,0 -0.28593,0 -0.0357,0 -0.072,0.0059 -0.10722,0 -0.14874,-0.02479 -0.062,-0.03259 -0.1787,-0.07148 -0.0233,-0.0078 -0.17171,0 -0.21444,0 -0.0715,0 -0.14296,0 -0.21444,0 -0.0315,0 -0.0768,-0.0076 -0.10722,0 -0.0905,0.02262 -0.16778,0.06602 -0.25018,0.10722 -0.0238,0.01191 -0.0493,0.02096 -0.0715,0.03574 -0.014,0.0093 -0.0217,0.02641 -0.0357,0.03574 -0.0222,0.01476 -0.0493,0.02096 -0.0715,0.03574 -0.0175,0.01164 -0.13133,0.125505 -0.14296,0.14296 -0.0296,0.04433 -0.0419,0.09863 -0.0715,0.14296 -0.009,0.01402 -0.0304,0.01976 -0.0357,0.03574 -0.007,0.02048 0,0.145148 0,0.178703 0,0.131048 0,0.262093 0,0.393141 0,0.08339 0,0.166788 0,0.250182 0,0.02384 0.006,0.04836 0,0.07148 -0.009,0.03655 -0.0266,0.07067 -0.0357,0.10722 -0.007,0.02816 0,0.119647 0,0.142962 0,0.08339 0,0.166786 0,0.25018"
       id="path866"
       inkscape:connector-curvature="0" />
    <path
       style="fill:none;stroke:#000000;stroke-width:0.26458332px;stroke-linecap:butt;stroke-linejoin:miter;stroke-opacity:1"
       d="m 160.00875,56.826038 c 0,-0.115607 0.0116,-0.175561 -0.0357,-0.285922 -0.0169,-0.03948 -0.0564,-0.067 -0.0715,-0.10722 -0.0213,-0.05688 -0.0165,-0.121073 -0.0357,-0.178702 -0.0244,-0.07315 -0.14598,-0.269314 -0.1787,-0.321662 -0.0228,-0.03643 -0.0523,-0.0688 -0.0715,-0.107219 -0.0821,-0.164225 -0.0395,-0.161716 -0.14296,-0.285922 -0.0324,-0.03883 -0.0778,-0.06609 -0.10722,-0.10722 -0.031,-0.04335 -0.0374,-0.102031 -0.0715,-0.142962 -0.0275,-0.033 -0.0715,-0.04765 -0.10722,-0.07148 -0.0357,-0.02384 -0.0715,-0.04765 -0.10722,-0.07148 -0.0916,-0.06109 -0.18278,-0.137446 -0.28592,-0.1787 -0.035,-0.014 -0.0707,-0.0266 -0.10722,-0.03574 -0.12184,-0.03046 0.1287,0.10009 -0.14296,-0.03574 -0.0151,-0.0075 -0.0207,-0.0282 -0.0357,-0.03574 -0.0153,-0.0076 -0.16458,0 -0.17871,0 -0.0596,0 -0.11913,0 -0.1787,0 -0.0357,0 -0.0718,-0.0044 -0.10722,0 -0.0603,0.0075 -0.11856,0.02715 -0.1787,0.03574 -0.0236,0.0034 -0.0481,-0.0047 -0.0715,0 -0.0369,0.0074 -0.0707,0.0266 -0.10722,0.03574 -0.12184,0.03046 0.1287,-0.100092 -0.14296,0.03574 -0.0301,0.01508 -0.0434,0.05279 -0.0715,0.07148 -0.0222,0.01476 -0.0477,0.02381 -0.0715,0.03574 -0.0858,0.04289 -0.17564,0.08084 -0.25018,0.14296 -0.0388,0.03236 -0.0715,0.07148 -0.10722,0.107222 -0.0357,0.03574 -0.0846,0.06201 -0.10722,0.10722 -0.0272,0.05433 -0.0132,0.122298 -0.0357,0.178699 -0.0258,0.0645 -0.0735,0.117978 -0.10722,0.178703 -0.0259,0.04657 -0.0433,0.09778 -0.0715,0.142959 -0.0316,0.05051 -0.0715,0.09531 -0.10723,0.142963 -0.0715,0.09531 -0.14835,0.186795 -0.21443,0.285919 -0.0771,0.115599 -0.14297,0.238268 -0.21445,0.357402 -0.0357,0.05957 -0.0704,0.119795 -0.10722,0.178702 -0.0228,0.03643 -0.0523,0.0688 -0.0715,0.10722 -0.0584,0.116755 -0.0799,0.198808 -0.10722,0.321662 -0.0132,0.0593 -0.0111,0.12319 -0.0357,0.178699 -0.0242,0.05444 -0.083,0.08853 -0.10722,0.142963 -0.0247,0.05551 -0.0226,0.119401 -0.0357,0.178699 -0.0107,0.04795 -0.0261,0.0948 -0.0357,0.142962 -0.0142,0.07106 -0.0144,0.14518 -0.0357,0.21444 -0.0267,0.08672 -0.0838,0.162515 -0.10722,0.250182 -0.0247,0.0928 -0.018,0.191519 -0.0357,0.285922 -0.0155,0.08285 -0.0959,0.351597 -0.10722,0.464622 -0.006,0.05927 0,0.119133 0,0.178702 0,0.04765 0,0.09531 0,0.142959 0,0.131049 0,0.262094 0,0.393142 0,0.04765 -0.006,0.09568 0,0.14296 0.006,0.04874 0.0261,0.0948 0.0357,0.142962 0.009,0.04673 -0.006,0.09567 0,0.14296 0.008,0.06028 0.0257,0.118782 0.0357,0.178702 0.002,0.01175 -0.002,0.02405 0,0.03574 0.01,0.04816 0.0288,0.09433 0.0357,0.14296 0.005,0.03538 -0.008,0.07233 0,0.107219 0.0163,0.07355 0.0498,0.142272 0.0715,0.214442 0.0141,0.04705 0.0251,0.09501 0.0357,0.14296 0.0575,0.258773 0.008,0.09433 0.0715,0.285922 0.0194,0.05812 0.0364,0.126114 0.0715,0.178702 0.0328,0.04917 0.0551,0.03676 0.10722,0.07148 0.014,0.0093 0.0217,0.02641 0.0357,0.03574 0.0222,0.01479 0.0493,0.02095 0.0715,0.03574 0.0492,0.03278 0.0368,0.05514 0.0715,0.10722 0.0328,0.04917 0.0551,0.03676 0.10722,0.07148 0.014,0.0093 0.0207,0.02821 0.0357,0.03574 0.0213,0.01066 0.0502,-0.01066 0.0715,0 0.0151,0.0075 0.0198,0.03041 0.0357,0.03574 0.0205,0.0068 0.14514,0 0.1787,0 0.0477,0 0.0953,0 0.14295,0 0.0238,0 0.0477,0 0.0715,0 0.0119,0 0.0242,0.0029 0.0357,0 0.0365,-0.0091 0.0735,-0.01889 0.10722,-0.03574 0.16356,-0.08178 -0.15166,0.01482 0.10722,-0.07148 0.0113,-0.0038 0.0242,0.0029 0.0357,0 0.0365,-0.0091 0.0715,-0.02381 0.10722,-0.03574"
       id="path870"
       inkscape:connector-curvature="0" />
    <path
       style="fill:none;stroke:#000000;stroke-width:0.26458332px;stroke-linecap:butt;stroke-linejoin:miter;stroke-opacity:1"
       d="m 158.11452,57.755281 c -0.11582,0.0218 -0.24077,-0.01667 -0.3574,0 -0.12121,0.0173 -0.24176,0.06867 -0.3574,0.10722 -0.0803,0.02676 -0.21878,0.05686 -0.28592,0.107222 -0.027,0.02022 -0.0445,0.05126 -0.0715,0.07148 -0.0213,0.01598 -0.0526,0.01691 -0.0715,0.03574 -0.0188,0.01884 -0.021,0.04932 -0.0357,0.07148 -0.0275,0.04124 -0.0797,0.06598 -0.10722,0.107222 -0.051,0.07641 -0.0737,0.16646 -0.10722,0.25018 -0.0381,0.09531 -0.0478,0.06017 -0.0715,0.178702 -0.0117,0.05841 0.01,0.119944 0,0.1787 -0.006,0.03875 -0.0456,0.139811 -0.0715,0.178702 -0.009,0.01402 -0.0282,0.02066 -0.0357,0.03574 -0.005,0.01066 0.003,0.02418 0,0.03574 -0.009,0.03655 -0.0266,0.07067 -0.0357,0.107219 -0.008,0.03058 0,0.142979 0,0.178703 0,0.119134 0,0.238268 0,0.357401 0,0.07148 0,0.14296 0,0.21444 0,0.03574 -0.009,0.07255 0,0.10722 0.006,0.02585 0.0273,0.04621 0.0357,0.07148 0.0127,0.03798 -0.0126,0.104982 0,0.14296 0.008,0.02527 0.0293,0.04564 0.0357,0.07148 0.009,0.03467 -0.0113,0.07332 0,0.107222 0.008,0.02527 0.0273,0.04621 0.0357,0.07148 0.004,0.0113 -0.004,0.02445 0,0.03574 0.008,0.02527 0.0238,0.04765 0.0358,0.07148 0.0119,0.02381 0.0209,0.04931 0.0357,0.07148 0.009,0.01402 0.0264,0.02172 0.0357,0.03574 0.004,0.0067 0.0692,0.140671 0.0715,0.142963 0.0435,0.04353 0.0799,0.01675 0.10722,0.07148 0.005,0.01066 0.0119,0.03574 0,0.03574 -0.0119,0 0,-0.02381 0,-0.03574"
       id="path872"
       inkscape:connector-curvature="0" />
    <path
       style="fill:none;stroke:#000000;stroke-width:0.26458332px;stroke-linecap:butt;stroke-linejoin:miter;stroke-opacity:1"
       d="m 157.4712,59.399331 c -0.0477,0.01191 -0.0948,0.02611 -0.14296,0.03574 -0.0117,0.0024 -0.0245,-0.0038 -0.0357,0 -0.10381,0.0346 -0.0499,0.0374 -0.14296,0.107219 -0.0213,0.01598 -0.0477,0.02381 -0.0715,0.03574 -0.0238,0.01191 -0.0462,0.02732 -0.0715,0.03574 -0.0113,0.0038 -0.0242,-0.0029 -0.0357,0 -0.0366,0.0091 -0.0707,0.0266 -0.10722,0.03574 -0.0116,0.0029 -0.0357,0.01191 -0.0357,0 0,-0.01191 0.0238,0 0.0357,0"
       id="path874"
       inkscape:connector-curvature="0" />
    <path
       style="fill:none;stroke:#000000;stroke-width:0.26458332px;stroke-linecap:butt;stroke-linejoin:miter;stroke-opacity:1"
       d="m 157.43546,60.400054 c -0.0477,-0.02381 -0.0953,-0.04765 -0.14296,-0.07148 -0.0238,-0.01191 -0.0493,-0.02096 -0.0715,-0.03574 -0.0325,-0.0217 -0.0755,-0.09138 -0.10722,-0.10722 -0.0107,-0.0053 -0.0245,0.0038 -0.0357,0 -0.0253,-0.0084 -0.0462,-0.02732 -0.0715,-0.03574 -0.038,-0.01267 -0.10498,0.01265 -0.14296,0 -0.25888,-0.08629 0.0564,0.01029 -0.10722,-0.07148 -0.0107,-0.0053 -0.0238,0 -0.0357,0 -0.0119,0 -0.0238,0 -0.0357,0 -0.0119,0 -0.0403,0.01101 -0.0357,0 0.0615,-0.14754 0.14298,-0.285922 0.21448,-0.428882"
       id="path876"
       inkscape:connector-curvature="0" />
    <path
       style="fill:#3d0000;fill-opacity:1;stroke:#000000;stroke-width:0.26458332px;stroke-linecap:butt;stroke-linejoin:miter;stroke-opacity:1"
       d="m 161.43836,54.502926 c -3.43106,8.541901 -2.25163,9.328186 -2.25163,9.328186 l 6.36175,-9.185225 c 0,0 10.07873,5.110845 8.97078,1.787009 -1.10794,-3.323836 -5.71843,-21.730025 -29.52138,-15.439754 -23.80296,6.29027 -6.75489,29.34268 -6.75489,29.34268 l 15.65419,-4.717704 c 0,0 -1.03655,-16.366866 5.78991,-12.187398 z"
       id="path878"
       inkscape:connector-curvature="0"
       sodipodi:nodetypes="ccccsccsc" />
  </g>
</svg>
