<?xml version="1.0" encoding="UTF-8" standalone="no"?>
<svg
   xmlns:dc="http://purl.org/dc/elements/1.1/"
   xmlns:cc="http://creativecommons.org/ns#"
   xmlns:rdf="http://www.w3.org/1999/02/22-rdf-syntax-ns#"
   xmlns:svg="http://www.w3.org/2000/svg"
   xmlns="http://www.w3.org/2000/svg"
   xmlns:sodipodi="http://sodipodi.sourceforge.net/DTD/sodipodi-0.dtd"
   xmlns:inkscape="http://www.inkscape.org/namespaces/inkscape"
   width="124"
   height="24"
   viewBox="0 0 124 24"
   version="1.1"
   id="svg4"
   sodipodi:docname="twitter.svg"
   inkscape:version="0.92.4 (5da689c313, 2019-01-14)">
  <metadata
     id="metadata10">
    <rdf:RDF>
      <cc:Work
         rdf:about="">
        <dc:format>image/svg+xml</dc:format>
        <dc:type
           rdf:resource="http://purl.org/dc/dcmitype/StillImage" />
        <dc:title></dc:title>
      </cc:Work>
    </rdf:RDF>
  </metadata>
  <defs
     id="defs8" />
  <sodipodi:namedview
     pagecolor="#333333"
     bordercolor="#666666"
     borderopacity="1"
     objecttolerance="10"
     gridtolerance="10"
     guidetolerance="10"
     inkscape:pageopacity="0"
     inkscape:pageshadow="2"
     inkscape:window-width="3840"
     inkscape:window-height="2032"
     id="namedview6"
     showgrid="false"
     inkscape:zoom="3.4766083"
     inkscape:cx="-11.207661"
     inkscape:cy="15.244743"
     inkscape:window-x="0"
     inkscape:window-y="54"
     inkscape:window-maximized="1"
     inkscape:current-layer="svg4" />
  <path
     d="M 24,4.557 C 23.117,4.949 22.168,5.213 21.172,5.332 22.189,4.723 22.97,3.758 23.337,2.608 22.386,3.172 21.332,3.582 20.21,3.803 19.313,2.846 18.032,2.248 16.616,2.248 13.437,2.248 11.101,5.214 11.819,8.293 7.728,8.088 4.1,6.128 1.671,3.149 0.381,5.362 1.002,8.257 3.194,9.723 2.388,9.697 1.628,9.476 0.965,9.107 c -0.054,2.281 1.581,4.415 3.949,4.89 -0.693,0.188 -1.452,0.232 -2.224,0.084 0.626,1.956 2.444,3.379 4.6,3.419 -2.07,1.623 -4.678,2.348 -7.29,2.04 2.179,1.397 4.768,2.212 7.548,2.212 9.142,0 14.307,-7.721 13.995,-14.646 C 22.505,6.411 23.34,5.544 24,4.557 Z"
     id="path2"
     style="fill:#ffffff;fill-opacity:1;stroke:none;stroke-opacity:1"
     inkscape:connector-curvature="0" />
  <text
     xml:space="preserve"
     style="font-style:normal;font-weight:normal;font-size:17.15377426px;line-height:1.25;font-family:sans-serif;letter-spacing:0px;word-spacing:0px;fill:#ffffff;fill-opacity:1;stroke:none;stroke-width:0.42884433"
     x="25.078732"
     y="17.846592"
     id="text814"><tspan
       sodipodi:role="line"
       id="tspan812"
       x="25.078732"
       y="17.846592"
       style="stroke-width:0.42884433">@beothorn</tspan></text>
</svg>
